<svg width="25" height="24" viewBox="0 0 25 24" fill="none" xmlns="http://www.w3.org/2000/svg">
<g clip-path="url(#clip0_717_27035)">
<path d="M6.72333 11.0883C8.40333 14.39 11.11 17.085 14.4117 18.7767L16.9783 16.21C17.2933 15.895 17.76 15.79 18.1683 15.93C19.475 16.3617 20.8867 16.595 22.3333 16.595C22.975 16.595 23.5 17.12 23.5 17.7617V21.8333C23.5 22.475 22.975 23 22.3333 23C11.3783 23 2.5 14.1217 2.5 3.16667C2.5 2.525 3.025 2 3.66667 2H7.75C8.39167 2 8.91667 2.525 8.91667 3.16667C8.91667 4.625 9.15 6.025 9.58167 7.33167C9.71 7.74 9.61667 8.195 9.29 8.52167L6.72333 11.0883Z" fill="white"/>
</g>
<defs>
<clipPath id="clip0_717_27035">
<rect width="24" height="24" fill="white" transform="translate(0.5)"/>
</clipPath>
</defs>
</svg>
