<svg width="25" height="24" viewBox="0 0 25 24" fill="none" xmlns="http://www.w3.org/2000/svg">
<g clip-path="url(#clip0_213_40)">
<path d="M18.8302 10.3124C18.5725 10.8203 18.1797 11.2467 17.6953 11.5446C17.2108 11.8425 16.6536 12.0002 16.0854 12.0002C15.5171 12.0002 14.9599 11.8425 14.4755 11.5446C13.9911 11.2467 13.5983 10.8203 13.3406 10.3124H1.5V20.9998H18.9715C18.5359 20.4819 18.2413 19.8598 18.1161 19.194C17.9909 18.5282 18.0395 17.8413 18.257 17.1998C18.4746 16.5584 18.8538 15.9842 19.3579 15.5331C19.862 15.0819 20.4738 14.769 21.134 14.6247V10.3124H18.8302ZM11.3175 19.0308C10.6517 19.0308 10.0009 18.8329 9.44739 18.462C8.89385 18.0911 8.46241 17.564 8.20765 16.9472C7.95288 16.3305 7.88622 15.6519 8.0161 14.9971C8.14598 14.3424 8.46656 13.741 8.93731 13.269C9.40806 12.797 10.0078 12.4755 10.6608 12.3453C11.3137 12.215 11.9905 12.2819 12.6056 12.5373C13.2207 12.7928 13.7464 13.2254 14.1162 13.7805C14.4861 14.3355 14.6835 14.9881 14.6835 15.6556C14.6835 16.5508 14.3289 17.4093 13.6976 18.0422C13.0664 18.6752 12.2102 19.0308 11.3175 19.0308Z" fill="white"/>
<path d="M22.1212 20.9999C23.1976 20.9999 24.0703 19.9061 24.0703 18.5569C24.0703 17.2077 23.1976 16.114 22.1212 16.114C21.0447 16.114 20.1721 17.2077 20.1721 18.5569C20.1721 19.9061 21.0447 20.9999 22.1212 20.9999Z" fill="white"/>
<path d="M16.274 10.2508C17.3505 10.2508 18.2231 9.59457 18.2231 8.78505C18.2231 7.97552 17.3505 7.31927 16.274 7.31927C15.1976 7.31927 14.325 7.97552 14.325 8.78505C14.325 9.59457 15.1976 10.2508 16.274 10.2508Z" fill="white"/>
<path d="M19.1713 8.90622H22.5374V14.5739C22.7018 14.5977 22.8645 14.632 23.0246 14.6765L24.4971 6.49551L5.17796 3.00012L4.11475 8.90622H13.0006C13.0006 8.0857 13.3256 7.29879 13.9042 6.7186C14.4829 6.1384 15.2676 5.81246 16.0859 5.81246C16.9042 5.81246 17.689 6.1384 18.2676 6.7186C18.8462 7.29879 19.1713 8.0857 19.1713 8.90622Z" fill="white"/>
</g>
<defs>
<clipPath id="clip0_213_40">
<rect width="24" height="24" fill="white" transform="translate(0.5)"/>
</clipPath>
</defs>
</svg>
