<svg width="24" height="24" viewBox="0 0 24 24" fill="none" xmlns="http://www.w3.org/2000/svg">
<path opacity="0.25" d="M6 22H2C1.73478 22 1.48043 21.9157 1.29289 21.7657C1.10536 21.6157 1 21.4122 1 21.2V14.8C1 14.5878 1.10536 14.3843 1.29289 14.2343C1.48043 14.0843 1.73478 14 2 14H6C6.26522 14 6.51957 14.0843 6.70711 14.2343C6.89464 14.3843 7 14.5878 7 14.8V21.2C7 21.4122 6.89464 21.6157 6.70711 21.7657C6.51957 21.9157 6.26522 22 6 22Z" fill="white"/>
<path d="M14 22H10C9.73478 22 9.48043 21.9042 9.29289 21.7337C9.10536 21.5632 9 21.332 9 21.0909V2.90909C9 2.66799 9.10536 2.43675 9.29289 2.26627C9.48043 2.09578 9.73478 2 10 2H14C14.2652 2 14.5196 2.09578 14.7071 2.26627C14.8946 2.43675 15 2.66799 15 2.90909V21.0909C15 21.332 14.8946 21.5632 14.7071 21.7337C14.5196 21.9042 14.2652 22 14 22Z" fill="white"/>
<path opacity="0.5" d="M22 22H18C17.7348 22 17.4804 21.9022 17.2929 21.728C17.1054 21.5539 17 21.3177 17 21.0714V9.92857C17 9.6823 17.1054 9.44611 17.2929 9.27197C17.4804 9.09783 17.7348 9 18 9H22C22.2652 9 22.5196 9.09783 22.7071 9.27197C22.8946 9.44611 23 9.6823 23 9.92857V21.0714C23 21.3177 22.8946 21.5539 22.7071 21.728C22.5196 21.9022 22.2652 22 22 22Z" fill="white"/>
</svg>
